Coordinates
version=1
nRows=20
nColumns=38
inDegrees=no

Units are S.I. units (second, meters, Newtons, ...)
If the header above contains a line with 'inDegrees', this indicates whether rotational values are in degrees (yes) or radians (no).

endheader
time	pelvis_tilt	pelvis_list	pelvis_rotation	pelvis_tx	pelvis_ty	pelvis_tz	hip_flexion_r	hip_adduction_r	hip_rotation_r	knee_angle_r	ankle_angle_r	subtalar_angle_r	mtp_angle_r	hip_flexion_l	hip_adduction_l	hip_rotation_l	knee_angle_l	ankle_angle_l	subtalar_angle_l	mtp_angle_l	lumbar_extension	lumbar_bending	lumbar_rotation	arm_flex_r	arm_add_r	arm_rot_r	elbow_flex_r	pro_sup_r	wrist_flex_r	wrist_dev_r	arm_flex_l	arm_add_l	arm_rot_l	elbow_flex_l	pro_sup_l	wrist_flex_l	wrist_dev_l
45	0.876642	1.45731	0.761097	0.628864	-0.181145	0.801536	0.808615	-0.0163176	-0.0897095	1.2184	-0.137037	0	0	0.828252	-0.303698	-0.285808	1.34065	-0.153763	0	0	-0.652117	0.167627	-0.200554	0.682037	-0.172161	0.960847	0.232798	0.885442	0	0	0.231087	-0.452533	0.378625	0.590646	0.971278	0	0
45.01	0.951624	1.46021	0.68889	0.629222	-0.179232	0.805616	0.777663	0.0219034	-0.0938249	1.15339	-0.13208	0	0	0.810776	-0.307017	-0.286349	1.32926	-0.1576	0	0	-0.649771	0.16995	-0.203491	0.679564	-0.172663	0.963856	0.236056	0.875583	0	0	0.22354	-0.454039	0.36832	0.594004	0.985198	0	0
45.02	0.951143	1.4608	0.689502	0.627798	-0.178179	0.80925	0.777882	-0.0151514	-0.0962119	1.18952	-0.149544	0	0	0.800583	-0.300506	-0.286377	1.31488	-0.160131	0	0	-0.640482	0.17127	-0.208728	0.680422	-0.175541	0.96891	0.239944	0.869777	0	0	0.21657	-0.452057	0.358346	0.596451	0.994945	0	0
45.03	0.991935	1.46318	0.648337	0.627828	-0.176152	0.81336	0.760877	-0.0125216	-0.0974516	1.17426	-0.153193	0	0	0.783613	-0.302221	-0.291289	1.30114	-0.163693	0	0	-0.635414	0.17037	-0.210365	0.67753	-0.177927	0.973723	0.244712	0.863815	0	0	0.209801	-0.453031	0.352782	0.599534	1.00462	0	0
45.04	0.981374	1.46368	0.659037	0.627445	-0.174649	0.816576	0.752286	-0.0127702	-0.0966815	1.16159	-0.157346	0	0	0.774577	-0.298829	-0.293157	1.28847	-0.167366	0	0	-0.623068	0.169031	-0.215046	0.675217	-0.179902	0.980211	0.24877	0.858674	0	0	0.201284	-0.454518	0.348066	0.604502	1.00992	0	0
45.05	0.979903	1.46453	0.660211	0.627279	-0.172901	0.820119	0.741133	-0.0113986	-0.095368	1.14608	-0.161442	0	0	0.76335	-0.296966	-0.296381	1.27478	-0.171228	0	0	-0.612136	0.16717	-0.21843	0.672244	-0.182296	0.987325	0.253369	0.853781	0	0	0.193059	-0.456292	0.343782	0.610338	1.01133	0	0
45.06	0.978813	1.466	0.661274	0.627026	-0.171043	0.823684	0.730305	-0.0118966	-0.0952092	1.13354	-0.165733	0	0	0.751282	-0.294365	-0.299957	1.26077	-0.174884	0	0	-0.601239	0.165128	-0.222159	0.669119	-0.18473	0.99572	0.257746	0.849588	0	0	0.185023	-0.458106	0.340733	0.616152	1.01077	0	0
45.07	0.980869	1.46776	0.658958	0.62676	-0.169108	0.82734	0.718922	-0.0126401	-0.0949373	1.1218	-0.170038	0	0	0.738335	-0.29194	-0.303973	1.24629	-0.178552	0	0	-0.590742	0.163044	-0.22543	0.665956	-0.18739	1.00426	0.262268	0.845213	0	0	0.177291	-0.459996	0.339434	0.621703	1.0107	0	0
45.08	1.00338	1.46997	0.636341	0.626447	-0.167059	0.831407	0.703814	-0.0124255	-0.0956693	1.10649	-0.174364	0	0	0.722654	-0.290346	-0.308071	1.23061	-0.181913	0	0	-0.58267	0.161829	-0.22782	0.662963	-0.190474	1.01227	0.267155	0.840156	0	0	0.170702	-0.461713	0.33943	0.626794	1.01029	0	0
45.09	1.02117	1.47417	0.620091	0.625969	-0.165109	0.835944	0.686772	-0.0148011	-0.09662	1.08804	-0.179893	0	0	0.704252	-0.280185	-0.304921	1.20851	-0.183913	0	0	-0.576325	0.15936	-0.231503	0.660016	-0.194259	1.02135	0.272994	0.832594	0	0	0.16607	-0.464066	0.341235	0.632183	1.009	0	0
45.1	1.05905	1.47627	0.582294	0.625665	-0.162857	0.840027	0.669583	-0.0133552	-0.0975769	1.07041	-0.185106	0	0	0.687487	-0.279316	-0.308513	1.19313	-0.188319	0	0	-0.568575	0.158598	-0.233493	0.65648	-0.198202	1.03145	0.279008	0.825758	0	0	0.159272	-0.466359	0.343172	0.638642	1.00673	0	0
45.11	1.07939	1.47703	0.561802	0.625393	-0.160583	0.843774	0.656041	-0.0120176	-0.0981402	1.05603	-0.189658	0	0	0.673554	-0.278308	-0.311058	1.17849	-0.192004	0	0	-0.557988	0.157842	-0.23552	0.652409	-0.202066	1.04007	0.285009	0.821481	0	0	0.152241	-0.46825	0.345321	0.644362	1.00522	0	0
45.12	1.09503	1.47751	0.545978	0.625127	-0.15826	0.847388	0.643253	-0.0106542	-0.0985267	1.04194	-0.193999	0	0	0.660289	-0.277388	-0.31354	1.16403	-0.195707	0	0	-0.546492	0.157091	-0.237639	0.648316	-0.206069	1.04943	0.291188	0.818514	0	0	0.145322	-0.47005	0.348147	0.649497	1.00367	0	0
45.13	1.11209	1.47815	0.528903	0.624853	-0.155849	0.850947	0.629085	-0.00941189	-0.099053	1.02607	-0.197967	0	0	0.646833	-0.276696	-0.316369	1.1498	-0.199597	0	0	-0.534855	0.156217	-0.239947	0.644045	-0.210273	1.0586	0.297758	0.815943	0	0	0.138185	-0.471865	0.350988	0.654801	1.00192	0	0
45.14	1.12841	1.47877	0.512513	0.624597	-0.153387	0.854485	0.614848	-0.00814385	-0.09956	1.00971	-0.202292	0	0	0.633396	-0.275957	-0.31936	1.13551	-0.203544	0	0	-0.523014	0.155235	-0.242376	0.639779	-0.214481	1.06723	0.304509	0.813292	0	0	0.130799	-0.473549	0.353395	0.660198	1.00003	0	0
45.15	1.1433	1.47941	0.497621	0.624373	-0.150904	0.858012	0.600877	-0.00687746	-0.100089	0.993241	-0.20669	0	0	0.619877	-0.274406	-0.321667	1.12059	-0.207106	0	0	-0.510876	0.154164	-0.244844	0.635453	-0.218639	1.07559	0.311026	0.810735	0	0	0.123307	-0.474919	0.354926	0.665682	0.997598	0	0
45.16	1.15939	1.48019	0.481611	0.624124	-0.148371	0.861503	0.586015	-0.00584132	-0.100834	0.975668	-0.210876	0	0	0.605993	-0.272545	-0.323921	1.1054	-0.210489	0	0	-0.498719	0.153072	-0.24733	0.630999	-0.222934	1.08418	0.31756	0.808764	0	0	0.115643	-0.475861	0.355535	0.671287	0.994959	0	0
45.17	1.17487	1.48109	0.466028	0.623847	-0.145812	0.864999	0.57187	-0.00516567	-0.101627	0.959958	-0.215366	0	0	0.591793	-0.270676	-0.326749	1.08986	-0.214156	0	0	-0.486735	0.151787	-0.249546	0.626571	-0.227226	1.0924	0.323758	0.806685	0	0	0.108079	-0.476322	0.355241	0.676748	0.992579	0	0
45.18	1.19246	1.48224	0.448167	0.623617	-0.14321	0.868535	0.557211	-0.00423201	-0.102019	0.943396	-0.22002	0	0	0.576837	-0.268879	-0.330418	1.07377	-0.217871	0	0	-0.475055	0.150138	-0.251749	0.622071	-0.230946	1.09955	0.329017	0.803601	0	0	0.100449	-0.476535	0.354117	0.681938	0.991015	0	0
45.19	1.21338	1.48377	0.427242	0.623325	-0.140587	0.872092	0.540921	-0.00370829	-0.102527	0.924417	-0.224748	0	0	0.561249	-0.266456	-0.334136	1.05725	-0.221508	0	0	-0.463683	0.148352	-0.254379	0.617573	-0.234466	1.10602	0.333884	0.80019	0	0	0.0926775	-0.476595	0.352978	0.686837	0.991645	0	0
